<svg width="760" height="480" viewBox="0 0 760 480" fill="none" xmlns="http://www.w3.org/2000/svg">
<g clip-path="url(#clip0_172_812)">
<path d="M0 0H760V480H0V0Z" fill="#A1A1AA"/>
<path opacity="0.3" fill-rule="evenodd" clip-rule="evenodd" d="M540.99 239.8C538.205 236.74 534.818 234.29 531.041 232.602C527.264 230.915 523.178 230.026 519.042 229.994C514.905 229.961 510.806 230.784 507.002 232.411C503.199 234.039 499.773 236.435 496.94 239.45L271 479.82H759.51L540.99 239.8Z" fill="#E4E4E7"/>
<path fill-rule="evenodd" clip-rule="evenodd" d="M186.5 188C198.567 188 210.14 183.206 218.673 174.673C227.206 166.14 232 154.567 232 142.5C232 130.433 227.206 118.86 218.673 110.327C210.14 101.794 198.567 97 186.5 97C174.433 97 162.86 101.794 154.327 110.327C145.794 118.86 141 130.433 141 142.5C141 154.567 145.794 166.14 154.327 174.673C162.86 183.206 174.433 188 186.5 188Z" fill="#FAFAFA"/>
<path fill-rule="evenodd" clip-rule="evenodd" d="M348.9 320.57C346.251 317.602 343.038 315.19 339.448 313.474C335.858 311.759 331.963 310.776 327.99 310.58C324.016 310.385 320.043 310.982 316.302 312.336C312.561 313.691 309.127 315.776 306.2 318.47L131 479.82H491L348.9 320.57Z" fill="#FAFAFA"/>
</g>
<defs>
<clipPath id="clip0_172_812">
<rect width="760" height="480" fill="white"/>
</clipPath>
</defs>
</svg>
